# xmcd
#
# Track frame offsets: 
#        150
#        17606
#        33841
#        57006
#        74111
#        92016
#        109354
#        126961
#        146155
#        160122
#
# Disc length: 2341 seconds
#
# Revision: 1
# Processed by: cddbd v1.5.2PL0 Copyright (c) Steve Scherf et al.
# Submitted via: ExactAudioCopy v1.3
#
DISCID=8a09230a
DTITLE=Dan Seals - Montana Sky
DYEAR=2002
DGENRE=Country
TTITLE0=Love On Arrival
TTITLE1=Good Times
TTITLE2=You Still Move Me
TTITLE3=Bop
TTITLE4=Meet Me In Montana (Duet With Marie Osmond)
TTITLE5=I Will Be There
TTITLE6=Big Wheels In The Moonlight
TTITLE7=Addicted
TTITLE8=Three Time Loser
TTITLE9=My Baby's Got Good Timing
EXTD=
EXTT0=
EXTT1=
EXTT2=
EXTT3=
EXTT4=
EXTT5=
EXTT6=
EXTT7=
EXTT8=
EXTT9=
PLAYORDER=
